<svg width="32" height="32" viewBox="0 0 32 32" fill="none" xmlns="http://www.w3.org/2000/svg">
<path d="M13.912 11.0992V13.3024H12.2992V15.9952H13.912V24H17.2272V15.9952H19.4512C19.4512 15.9952 19.6608 14.704 19.7616 13.2912H17.24V11.4512C17.24 11.1744 17.6016 10.8048 17.96 10.8048H19.7648V8H17.3088C13.8304 8 13.912 10.696 13.912 11.0992Z" fill="white"/>
<path d="M6.4 3.2C5.55131 3.2 4.73737 3.53714 4.13726 4.13726C3.53714 4.73737 3.2 5.55131 3.2 6.4V25.6C3.2 26.4487 3.53714 27.2626 4.13726 27.8627C4.73737 28.4629 5.55131 28.8 6.4 28.8H25.6C26.4487 28.8 27.2626 28.4629 27.8627 27.8627C28.4629 27.2626 28.8 26.4487 28.8 25.6V6.4C28.8 5.55131 28.4629 4.73737 27.8627 4.13726C27.2626 3.53714 26.4487 3.2 25.6 3.2H6.4ZM6.4 0H25.6C27.2974 0 28.9252 0.674284 30.1255 1.87452C31.3257 3.07475 32 4.70261 32 6.4V25.6C32 27.2974 31.3257 28.9252 30.1255 30.1255C28.9252 31.3257 27.2974 32 25.6 32H6.4C4.70261 32 3.07475 31.3257 1.87452 30.1255C0.674284 28.9252 0 27.2974 0 25.6V6.4C0 4.70261 0.674284 3.07475 1.87452 1.87452C3.07475 0.674284 4.70261 0 6.4 0Z" fill="white"/>
</svg>
